/* XPM */
static const char *csv_xpm[] = {
/* columns rows colors chars-per-pixel */
"16 16 44 1 ",
"  c None",
". c #1D7540",
"X c #1E7641",
"o c #1E7642",
"O c #1F7642",
"+ c #1F7742",
"@ c #207743",
"# c #217743",
"$ c #217744",
"% c #217844",
"& c #2A7D4C",
"* c #2C7E4D",
"= c #2E804F",
"- c #2F8050",
"; c #448D61",
": c #478F64",
"> c #488F64",
", c #4A9066",
"< c #4E936A",
"1 c #4F946B",
"2 c #50946C",
"3 c #54976F",
"4 c #569870",
"5 c #579871",
"6 c #599973",
"7 c #5D9C76",
"8 c #629F7B",
"9 c #6DA684",
"0 c #6EA684",
"q c #6EA785",
"w c #76AB8B",
"e c #79AD8E",
"r c #7AAE8F",
"t c #87B69A",
"y c #94BDA4",
"u c #96BFA7",
"i c #A2C6B1",
"p c #A5C8B3",
"a c #ABCBB8",
"s c #ADCDBA",
"d c #B0CEBC",
"f c #B7D3C2",
"g c #BFD8C9",
"h c #CADED2",
/* pixels */
"    %%%%%%%%    ",
"    %      %%   ",
"    %      %$%  ",
"    %       %%% ",
"    %        %%%",
"    %          %",
"    %          %",
"    %          %",
"@@o@@@@@@@%%%  %",
"@2y<0r56,7@%%  %",
"=d0;fu3ap8o%%  %",
"=sr;rh<ig*@%%  %",
"@,t<0w&:3@%%   %",
"#o.ooo@@o%     %",
"    %          %",
"    %%%%%%%%%%%%"
};
