/* XPM */
static const char *doc_xpm[] = {
/* columns rows colors chars-per-pixel */
"16 16 28 1 ",
"  c None",
". c #1F80CD",
"X c #1D81CE",
"o c #1E80CE",
"O c #1F80CE",
"+ c #1E81CE",
"@ c #1E80CF",
"# c #1D82CE",
"$ c #2786D2",
"% c #2887D2",
"& c #2987D2",
"* c #2E8AD4",
"= c #3B92DA",
"- c #3E93DA",
"; c #4295DD",
": c #4296DC",
"> c #4597DD",
", c #4698DE",
"< c #4E9CE0",
"1 c #4E9CE1",
"2 c #58A3E5",
"3 c #5AA4E6",
"4 c #60A6E8",
"5 c #6EAFED",
"6 c #79B6F2",
"7 c #7FB9F4",
"8 c #99C8FE",
"9 c #9BC9FF",
/* pixels */
"    $11111111   ",
"   @:99999999=  ",
"    :99999999=  ",
" *,,699999999=  ",
" 599999999999=  ",
" 597-==-===-=&@ ",
" 591 @   @  @   ",
" 591    @ @@    ",
" 591    @ @#    ",
" 591 @# @       ",
" 592            ",
" 599433333333&  ",
" 599999999999=  ",
" 599999999999=  ",
" 599999999999=  ",
" ,11111111111   "
};
