/* XPM */
static const char *docx_xpm[] = {
/* columns rows colors chars-per-pixel */
"16 16 38 1 ",
"  c None",
". c #1565BE",
"X c #1566BF",
"o c #1464C0",
"O c #1564C0",
"+ c #1465C0",
"@ c #1565C0",
"# c #1564C1",
"$ c #1665C0",
"% c #1566C0",
"& c #1666C0",
"* c #1967C1",
"= c #1E6BC2",
"- c #216DC3",
"; c #226DC3",
": c #2771C5",
"> c #2D75C6",
", c #2E75C6",
"< c #3177C7",
"1 c #3B7ECA",
"2 c #4182CB",
"3 c #4E8ACF",
"4 c #5D94D2",
"5 c #6297D4",
"6 c #669AD4",
"7 c #7BA8DA",
"8 c #7EA9DB",
"9 c #83ADDC",
"0 c #90B5DF",
"q c #A4C2E4",
"w c #A8C5E5",
"e c #A9C5E6",
"r c #ABC7E6",
"t c #AFC9E7",
"y c #AFCAE7",
"u c #B2CBE8",
"i c #D2E0F0",
"p c #E5EDF5",
/* pixels */
"        @       ",
"    @@@@XX      ",
"@@@@@@@@@.     @",
"@@@@@@@@@X     @",
"@@@@@@@@XX     X",
"@,@@<@--.X     X",
"@011i@92#X     X",
"@377i,u@..     X",
"@*tt48q@#X     X",
"@@wr=p6@..     X",
"@@65@r:@#.     X",
"@@@@@@@@@X     X",
"@@@@@@@@XX     X",
"@@@@@@@@.X     @",
" @@o@@@@#X      ",
"        #       "
};
