/* XPM */
static const char *pdf_xpm[] = {
/* columns rows colors chars-per-pixel */
"16 16 62 1 ",
"  c #CC4B4C",
". c #CD4F50",
"X c #CD5051",
"o c #CE5354",
"O c #CF5556",
"+ c #CF5657",
"@ c #D05859",
"# c #D15C5D",
"$ c #D06363",
"% c #D26262",
"& c #D46767",
"* c #D26B6A",
"= c #D46969",
"- c #D56B6C",
"; c #D97A7A",
": c #D97C7C",
"> c #DC8485",
", c #DD8889",
"< c #DE898A",
"1 c #D88D8A",
"2 c #D88F8B",
"3 c #DF8D8D",
"4 c #DF8F8F",
"5 c #D9938F",
"6 c #D99390",
"7 c #D99490",
"8 c #DA9592",
"9 c #DB9D99",
"0 c #DB9E9A",
"q c #E09191",
"w c #E09292",
"e c #E29798",
"r c #DCA5A0",
"t c #DEAEA8",
"y c #DFB1AC",
"u c #DFB5AF",
"i c #E4A0A0",
"p c #E4A0A1",
"a c #E4A1A2",
"s c #E6A7A7",
"d c #E6A8A9",
"f c #E0B7B1",
"g c #E0B7B2",
"h c #E9B2B2",
"j c #E0B9B3",
"k c #E2C1BB",
"l c #E2C3BC",
"z c #D9D7CA",
"x c #DAD8CC",
"c c #E4CFC8",
"v c #E5D3CC",
"b c #E2E1D6",
"n c #E3E2D8",
"m c #E4E4DA",
"M c #E5E5DB",
"N c #E7E7DD",
"B c #E8E2D9",
"V c #E8E5DC",
"C c #E8E5DD",
"Z c #E9E8DF",
"A c #E9E9E0",
"S c None",
/* pixels */
"SSAAAAAAAAMSSSSS",
"SSAAAAAAAAmxSSSS",
"SSAAAAArfAmzxSSS",
"SSAAAAAygANbbnSS",
"SSAAAAAf9AAAAASS",
"SSAAAAA70cAAAASS",
"SSAAAAB8j*6lAASS",
"SSAAAZ72kVtvAASS",
"SSAAA51AAAAAAASS",
"SSAAAuCAAAAAAASS",
"SSAAAAAAAAAAAASS",
"SS$$$$$$$$$$$$SS",
"SS  3e-sw#d;  SS",
"SS  aq><,:h-  SS",
"SS  iO%ph=4   SS",
"SSX @ .&o.+  XSS"
};
