/* XPM */
static const char *rtf_xpm[] = {
/* columns rows colors chars-per-pixel */
"16 16 24 1 ",
"  c #27374A",
". c #283749",
"X c #27394A",
"o c #27384B",
"O c #27394B",
"+ c #283849",
"@ c #283949",
"# c #283A49",
"$ c #28384A",
"% c #28394A",
"& c #29394A",
"* c #28394B",
"= c #2A3A4A",
"- c #2F3E4F",
"; c #3A4858",
": c #55626F",
"> c #6A7581",
", c #6B7682",
"< c #7D8791",
"1 c #818A94",
"2 c #9FA6AE",
"3 c #BCC1C6",
"4 c #DDDFE1",
"5 c None",
/* pixels */
"555%@.@@.@.55555",
"55555555555*5555",
"55555555555&5555",
"55555555555OX&55",
"55555555555555%5",
"55555555555555%5",
"55555555555555%5",
"5o++++++++++%5%5",
"5@+-=--&+++++5%5",
"5++3:24;++++#5%5",
"5%<,>,1++++++5%5",
"5%++++++++++ 5%5",
"55555555555555%5",
"55555555555555%5",
"55555555555555%5",
"555$%$%%$%$%% 55"
};
