/* XPM */
static char *result[] = {
/* columns rows colors chars-per-pixel */
"32 32 23 1 ",
"  c black",
". c #010202",
"X c #010304",
"o c #010405",
"O c #030407",
"+ c #050D11",
"@ c #060D11",
"# c #0A1923",
"$ c #112B3B",
"% c #204E6D",
"& c #204F6D",
"* c #225271",
"= c #225272",
"- c #245678",
"; c #245778",
": c #245879",
"> c #24587A",
", c #24597B",
"< c #25597C",
"1 c #255A7C",
"2 c #3B8FC5",
"3 c #3C92CA",
"4 c None",
/* pixels */
"44444444     4444444444444444444",
"444444   444    4444444444444444",
"4444  444444444  444444444444444",
"444  444444444444  4444444444444",
"44  444444 4444444 4444444444444",
"44 4444    44444444 444444444444",
"4 4444  44444444444  44444444444",
"4 444  4444444444444 44444444444",
"  444 44444444444444 44444444444",
" 4444 44444444444444 44444444444",
" 444  44444444444444 44444444444",
" 4444444444444444444 44444444444",
"  444444444444444444 44444444444",
"4 444444444444444444 44444444444",
"4 444444444444444444 44444444444",
"4  4444444444444444 444444444444",
"44 444444444444444  444444444444",
"444 4444444444444  4444444444444",
"444  44444444444   44O4444444444",
"44444  44444444  44 X#.444444444",
"444444         4444X$2-.44444444",
"444444444444444444o#233;.4444444",
"4444444444444444444.-333:.444444",
"44444444444444444444.;333>.44444",
"444444444444444444444.:333>.4444",
"4444444444444444444444.>333,.444",
"44444444444444444444444.>333<.44",
"444444444444444444444444.,3331.4",
"4444444444444444444444444.<333%+",
"44444444444444444444444444.133=@",
"444444444444444444444444444.&*.4",
"4444444444444444444444444444+@44"
};
