/* XPM */
static const char *txt_xpm[] = {
/* columns rows colors chars-per-pixel */
"16 16 11 1 ",
"  c None",
". c #888888",
"X c gray56",
"o c gray67",
"O c #AFAFAF",
"+ c #BBBBBB",
"@ c #D7D7D7",
"# c gray85",
"$ c gainsboro",
"% c #ECECEC",
"& c #EEEEEE",
/* pixels */
"  &&&&&&&&&#    ",
"  &&&&&&&&&#+   ",
"  &&&&&&&&&@OO  ",
"  &&&&&&&&&&o.  ",
"  &&&&&&&&&&&o  ",
"  &&XXXXXXXX&%  ",
"  &&&&&&&&&&&&  ",
"  &&XXXXXXXX&&  ",
"  &&&&&&&&&&&&  ",
"  &&XXXXXXXX&&  ",
"  &&&&&&&&&&&&  ",
"  &&XXXXX&&&&&  ",
"  &&&&&&&&&&&&  ",
"  &&&&&&&&&&&&  ",
"  &&&&&&&&&&&&  ",
"  &&&&&&&&&&&&  "
};
