/* XPM */
static char *_00f24f92a2343b4e6a14c8070c43639RrCh8HDdhNxtTBXp[] = {
/* columns rows colors chars-per-pixel */
"18 18 2 1 ",
"  c None",
". c black",
/* pixels */
"                  ",
"                  ",
"                  ",
"                  ",
"                  ",
"                  ",
"                  ",
"        ..        ",
"       ....       ",
"      ..  ..      ",
"     ..    ..     ",
"                  ",
"                  ",
"                  ",
"                  ",
"                  ",
"                  ",
"                  "
};
