/* XPM */
static const char *xlsx_xpm[] = {
/* columns rows colors chars-per-pixel */
"16 16 102 2 ",
"   c None",
".  c #1B7041",
"X  c #1C7042",
"o  c #1D7042",
"O  c #1D7142",
"+  c #1D7143",
"@  c #1E7143",
"#  c #1E7243",
"$  c #1E7244",
"%  c #1F7244",
"&  c #2C6445",
"*  c #2D6546",
"=  c #216F44",
"-  c #31694A",
";  c #33684B",
":  c #34694C",
">  c #376D4F",
",  c #217044",
"<  c #207144",
"1  c #217145",
"2  c #227045",
"3  c #247247",
"4  c #237447",
"5  c #257248",
"6  c #267348",
"7  c #26774A",
"8  c #27774B",
"9  c #2D774E",
"0  c #29784D",
"q  c #2F7C51",
"w  c #367753",
"e  c #317D53",
"r  c #327E54",
"t  c #387954",
"y  c #437258",
"u  c #447359",
"i  c #4A775E",
"p  c #407D5B",
"a  c #427F5C",
"s  c #477F60",
"d  c #4D7961",
"f  c #388259",
"g  c #3D855D",
"h  c #418760",
"j  c #498363",
"k  c #498463",
"l  c #4A8464",
"z  c #53866A",
"x  c #55886B",
"c  c #558B6D",
"v  c #578C6E",
"b  c #598A6F",
"n  c #50916D",
"m  c #5C8C71",
"M  c #5F9B7A",
"N  c #609276",
"B  c #649479",
"V  c #6B967E",
"C  c #6D977F",
"Z  c #619C7C",
"A  c #6E9B82",
"S  c #7B9687",
"D  c #709C83",
"F  c #749B85",
"G  c #759F87",
"H  c #7C9688",
"J  c #779D88",
"K  c #6AA183",
"L  c #76A088",
"P  c #71A588",
"I  c #74A78B",
"U  c #7CA38D",
"Y  c #7DA48F",
"T  c #77A98D",
"R  c #80A691",
"E  c #82A792",
"W  c #84A894",
"Q  c #85A995",
"!  c #8AAC99",
"~  c #8BAD9A",
"^  c #8EAF9C",
"/  c #8FAF9D",
"(  c #88B49C",
")  c #94B3A2",
"_  c #97B4A4",
"`  c #94BCA6",
"'  c #9EB9AA",
"]  c #9FB9AA",
"[  c #9FB9AB",
"{  c #A5BAAF",
"}  c #A4BCAF",
"|  c #A5BDB0",
" . c #ABCAB9",
".. c #AECCBB",
"X. c #B0C4B9",
"o. c #B1C5BA",
"O. c #B2C5BA",
"+. c #B3C6BB",
"@. c #B6D1C2",
"#. c #BFD7CA",
"$. c #DEEAE3",
"%. c #ECF3EF",
/* pixels */
"                                ",
"              % %               ",
"  % % % % % % % 1 > s j k j     ",
"  % % % % % % # 9 S { +.} +./   ",
"  % % . % # # % = & z U w A '   ",
"  # 0 M q P h # 6 d J _ B / '   ",
"  % 7  .` @.e # 1 : m E a G '   ",
"  % . Z %.I . % 3 u C / v E }   ",
"  % X T $.( X # 3 u V / c Q }   ",
"  @ e ..K #.h # = ; b E t L '   ",
"  % 7 g 4 n f # 6 i F ) N ~ '   ",
"  % % # % X # % = & x Y t D '   ",
"  % % % % % % # 9 H { +.| +.!   ",
"    % % % % % % 1 -             ",
"              % #               ",
"                                "
};
